<svg width="349" height="218" viewBox="0 0 349 218" fill="none" xmlns="http://www.w3.org/2000/svg">
<path d="M251.1 21.5773L246.656 22.244L246.123 30.0217C245.856 34.9106 246.034 38.244 246.567 39.0217C247.545 40.244 264.434 39.244 267.367 37.7995C268.167 37.4662 268.434 35.1328 268.256 29.244L267.989 21.1328L261.767 21.0217C258.389 20.9106 253.589 21.244 251.1 21.5773ZM263.989 29.3551C263.989 33.5773 263.989 33.5773 259.9 34.3551C257.589 34.6884 254.567 35.0217 253.234 35.0217C250.834 35.0217 250.656 34.6884 250.656 30.6884V26.244L255.367 25.7995C257.856 25.5773 260.878 25.3551 262.034 25.244C263.723 25.0217 263.989 25.5773 263.989 29.3551Z" fill="black"/>
<path d="M229.102 65.4167C210.436 70.5278 197.28 93.6389 200.48 115.417C205.014 146.417 230.169 162.528 252.214 148.639C267.414 139.194 275.325 118.194 271.147 98.75C267.414 81.1945 257.28 69.0834 243.325 65.4167C236.214 63.5278 236.214 63.5278 229.102 65.4167ZM244.836 70.4167C250.258 72.3056 257.547 78.5278 261.014 84.3056C273.814 105.194 267.947 133.861 248.48 145.639C244.302 148.194 242.258 148.639 235.947 148.75C229.458 148.75 227.68 148.306 223.502 145.75C213.902 139.861 206.614 127.972 204.747 114.861C201.547 92.3056 217.102 69.5278 235.947 69.4167C239.147 69.3056 243.147 69.8611 244.836 70.4167Z" fill="black"/>
<path d="M226.698 86.7576C215.676 93.202 211.765 109.313 217.898 122.646C225.454 138.646 246.698 136.646 254.876 119.202C257.276 114.202 257.543 112.646 257.276 106.202C257.01 100.313 256.476 97.9798 254.432 94.3131C249.01 84.4242 236.476 81.0909 226.698 86.7576ZM228.121 101.313C228.121 102.202 227.676 104.202 227.054 105.758C226.254 107.98 226.343 109.313 227.41 112.202C228.832 116.091 228.654 118.535 226.787 118.535C223.498 118.535 221.454 107.091 223.676 101.758C224.743 99.3131 228.121 98.8687 228.121 101.313Z" fill="black"/>
<path d="M122.769 14.8897C109.614 23.0008 98.5026 29.3342 98.2359 29.0008C97.9692 28.5564 96.3692 24.3341 94.7692 19.5564C93.1692 14.6675 91.3025 10.5564 90.6803 10.223C90.0581 9.88971 85.4359 12.5564 80.3692 16.1119C46.3248 39.8897 0.635873 73.8897 0.0136512 76.0008C-0.519682 77.6675 14.6803 116.001 27.0359 144.334C42.8581 180.667 60.9914 217.667 63.0359 217.667C63.6581 217.667 71.9248 212.445 81.4359 206.001C101.258 192.667 98.8581 192.556 104.636 206.89C106.591 211.667 108.725 215.779 109.525 216.223C110.236 216.556 122.325 209.556 137.258 200.223C162.858 184.001 163.747 183.556 167.214 184.556C169.347 185.223 199.747 185.334 242.325 185.112C316.903 184.445 319.925 184.334 333.169 179.445C339.925 177.001 344.814 172.223 346.68 166.445C349.88 156.445 349.436 101.112 345.969 72.6675C344.28 58.8897 341.614 50.5564 336.991 44.7786C330.68 36.8897 327.036 35.223 314.769 34.4453L304.103 33.7786L303.836 27.3342L303.569 21.0008L290.503 21.1119C273.525 21.223 273.08 21.4453 272.547 27.6675L272.103 32.6675L230.769 33.3342C189.436 34.1119 178.591 35.0008 172.458 38.223C170.68 39.1119 169.08 39.7786 168.903 39.6675C168.814 39.4453 166.414 34.3342 163.569 28.223C154.858 9.22305 149.791 -0.110287 148.28 0.000824388C147.391 0.000824388 136.014 6.66749 122.769 14.8897ZM154.058 18.4453C165.969 43.4453 166.058 43.6675 164.636 47.223C163.925 49.0008 162.947 52.223 162.591 54.3341L161.791 58.1119L155.925 45.4453C152.725 38.4453 149.169 30.5564 148.014 28.0008C146.858 25.3342 145.347 23.223 144.636 23.223C141.791 23.223 114.058 41.1119 96.1025 54.6675C85.4359 62.7786 72.0137 73.8897 71.3025 75.223C71.0359 75.7786 79.747 99.223 90.5914 127.223C101.525 155.223 111.303 180.556 112.369 183.445C113.703 187.001 114.858 188.779 116.014 188.779C119.48 188.779 138.325 177.445 151.569 167.445C154.591 165.112 157.347 163.223 157.614 163.223C157.88 163.223 157.791 164.89 157.525 167.001C157.169 169.334 157.436 172.667 158.236 175.556C158.947 178.223 159.48 180.445 159.391 180.445C157.08 182.334 111.391 211.001 111.214 210.779C109.347 208.223 63.9248 96.0008 57.1692 77.4453C54.2359 69.5564 54.147 68.7786 55.4803 67.3342C58.2359 64.3342 79.9248 48.1119 93.8803 38.7786C106.147 30.5564 145.969 5.66749 147.214 5.55638C147.48 5.44527 150.591 11.3342 154.058 18.4453ZM91.9248 24.5564C93.5248 28.8897 94.6803 32.5564 94.5025 32.6675C94.4137 32.7786 89.1692 36.4453 82.7692 40.8897C76.4581 45.3342 66.3248 52.7786 60.3692 57.4453C50.7692 65.0008 49.4359 66.3342 49.4359 69.0008C49.4359 71.6675 48.1025 73.0008 38.3248 80.5564C32.1914 85.223 27.2137 89.7786 27.2137 90.5564C27.2137 91.3342 30.147 98.7786 33.7914 106.89C42.3248 126.112 48.9914 142.779 57.0803 164.89C60.7248 174.667 64.1025 183.112 64.8137 183.667C65.5248 184.223 69.4359 181.89 76.547 176.556C82.4137 172.112 87.4803 168.334 87.747 168.112C88.0137 168.001 90.3248 172.667 92.8137 178.667L97.4359 189.556L81.2581 200.556C72.2803 206.556 64.8137 211.667 64.4581 211.89C63.4803 212.445 42.5914 169.112 29.6137 139.223C21.6137 121.001 21.9692 124.667 24.4581 86.7786C25.6137 69.0008 26.4137 61.5564 27.3025 60.4453C28.0137 59.6675 37.5248 52.5564 48.547 44.5564C59.5692 36.6675 72.7248 27.1119 77.8803 23.4453C83.0359 19.6675 87.6581 16.6675 88.1914 16.5564C88.6359 16.5564 90.3248 20.1119 91.9248 24.5564ZM299.214 29.3342V33.223H288.103H276.991V30.0008C276.991 26.0008 277.614 25.7786 290.147 25.5564L299.214 25.4453V29.3342ZM146.769 36.1119C148.547 40.1119 149.88 43.5564 149.703 43.6675C149.614 43.7786 147.747 44.5564 145.791 45.223C143.48 46.1119 140.903 48.223 138.947 50.8897C135.303 56.0008 130.058 57.5564 125.88 54.8897C119.747 50.8897 111.391 53.6675 106.947 61.1119C104.814 64.7786 104.014 73.0008 105.258 77.5564C106.147 80.7786 106.058 81.1119 103.658 82.6675C102.236 83.5564 100.903 85.3342 100.547 86.5564C100.191 88.0008 99.2137 88.7786 97.7914 88.7786H95.6581L96.1914 74.5564C96.6359 63.4453 97.0803 60.1119 98.2359 59.0008C101.436 55.7786 141.258 28.8897 142.947 28.7786C143.214 28.7786 144.991 32.1119 146.769 36.1119ZM318.858 39.3342C320.725 40.223 321.08 44.8897 322.503 85.0008C323.303 109.001 323.303 123.112 322.503 146.556C321.969 163.223 321.169 177.334 320.725 177.89C318.058 181.223 171.48 181.89 165.614 178.556C162.858 176.89 161.08 171.445 161.791 166.779C162.058 165.112 162.503 156.556 162.769 147.667C163.125 138.779 163.925 119.334 164.636 104.334C165.258 89.3342 166.147 71.8897 166.414 65.4453C167.391 43.1119 169.703 40.8897 195.125 38.7786C207.036 37.6675 316.725 38.223 318.858 39.3342ZM331.747 45.6675C339.925 55.1119 342.147 65.1119 343.658 99.8897C344.28 113.001 344.636 124.667 344.458 125.779C344.191 127.556 342.947 126.89 336.014 121.223L328.014 114.667L326.858 84.7786C326.236 68.3342 325.525 51.7786 325.258 47.8897C324.636 39.3342 325.88 38.8897 331.747 45.6675ZM157.08 58.223C160.725 65.8897 161.347 68.0008 161.436 73.1119V79.223L158.325 74.6675C147.658 59.0008 127.658 68.223 128.725 88.3341L128.991 94.3341H124.28C118.68 94.3341 113.969 97.1119 110.058 102.556C103.036 112.556 106.236 127.556 116.725 133.89C120.369 136.223 121.347 137.334 120.903 138.667C119.48 143.112 119.48 161.89 120.903 171.001C122.414 179.89 122.414 180.445 120.903 181.779C117.969 184.445 116.903 183.223 113.525 174.001C111.658 169.001 104.903 151.445 98.5025 135.112C85.7025 102.334 85.4359 101.223 90.5914 95.8897C92.8137 93.5564 93.8803 93.1119 96.4581 93.6675C103.48 95.223 104.103 95.1119 104.191 92.0008C104.28 87.6675 105.258 86.4453 108.547 86.7786C110.236 86.8897 111.836 86.6675 112.191 86.3342C112.458 85.8897 111.925 83.3342 110.858 80.6675C104.369 63.7786 116.725 50.223 127.48 62.4453L129.436 64.6675L131.658 62.1119C133.703 59.6675 133.969 59.6675 135.48 61.3342C137.791 64.0008 138.058 63.7786 140.28 58.1119C142.414 52.223 146.503 48.5564 150.236 49.0008C152.458 49.3342 153.525 50.6675 157.08 58.223ZM93.4359 75.1119C93.0803 82.3341 92.547 88.5564 92.1914 88.8897C91.9248 89.3342 90.7692 90.0008 89.7914 90.3342C87.9248 91.1119 87.8359 90.8897 88.2803 79.1119C88.7248 67.7786 88.8137 67.0008 91.0359 64.6675C92.3692 63.223 93.6137 62.1119 93.7025 62.1119C93.8803 62.1119 93.7914 68.0008 93.4359 75.1119ZM22.7692 66.0008C22.7692 68.6675 20.1025 112.445 19.8359 114.334C19.6581 115.223 18.6803 113.445 17.5248 110.445L15.4803 104.89L16.8137 86.0008C17.9692 70.5564 18.4137 67.0008 19.747 65.7786C21.7914 63.8897 22.7692 64.0008 22.7692 66.0008ZM85.347 83.1119C84.9914 90.4453 84.4581 96.5564 84.1025 96.5564C82.5914 96.5564 81.4359 90.1119 81.4359 81.5564C81.4359 73.223 81.6137 72.1119 83.3914 70.5564C84.4581 69.5564 85.4359 69.0008 85.6137 69.223C85.7914 69.4453 85.7025 75.6675 85.347 83.1119ZM13.9692 84.6675C13.347 91.4453 12.7248 97.223 12.547 97.4453C12.3692 97.6675 11.5692 96.0008 10.7692 93.7786C9.70254 90.5564 9.52476 87.5564 9.96921 80.8897C10.5025 73.6675 10.8581 72.1119 12.4581 71.223C13.6137 70.5564 14.4137 70.5564 14.6803 71.223C14.8581 71.7786 14.5025 77.8897 13.9692 84.6675ZM152.191 73.7786C156.636 77.3342 158.058 81.8897 157.614 90.6675C157.169 97.8897 157.258 98.6675 158.947 99.1119C160.547 99.6675 160.636 100.334 160.191 105.112C159.925 108.001 159.48 117.334 159.125 125.667C158.858 134.112 158.414 141.001 158.147 141.001C157.969 141.001 155.925 139.112 153.614 136.667C151.303 134.334 148.547 131.779 147.48 131.112C145.703 130.001 145.436 129.001 145.436 122.89C145.436 118.445 146.058 114.334 147.214 111.112C149.703 104.223 149.436 102.334 146.058 103.112C143.569 103.667 138.147 100.445 135.747 97.1119C133.525 93.8897 132.991 92.223 132.991 87.7786C132.991 74.8897 143.925 66.8897 152.191 73.7786ZM78.5914 80.1119L78.3248 82.6675L77.1692 80.1119C76.1914 78.0008 76.1914 77.223 77.1692 75.7786C78.2359 74.1119 78.3248 74.1119 78.5914 75.7786C78.7692 76.7786 78.7692 78.7786 78.5914 80.1119ZM6.76921 79.0008C6.68032 82.1119 6.59143 82.3342 5.79143 80.6675C5.2581 79.5564 5.08032 77.8897 5.34699 77.0008C6.14699 74.3342 6.76921 75.223 6.76921 79.0008ZM57.0803 89.5564C59.747 96.6675 61.7914 102.556 61.7025 102.556C61.5248 102.667 60.2803 103.223 58.7692 103.779C54.8581 105.445 52.547 111.667 53.8803 117.556C55.3025 124.334 61.9692 132.112 70.5025 137.223L77.7025 141.556L81.9692 152.334C84.2803 158.334 86.0581 163.334 85.7914 163.667C84.6359 165.112 67.0359 177.89 66.7692 177.445C66.5914 177.223 62.8581 167.556 58.5025 155.779C51.4803 137.112 40.0137 109.334 33.7914 96.0008L31.747 91.4453L41.2581 84.1119C46.5025 80.0008 51.1248 76.6675 51.4803 76.5564C51.8359 76.5564 54.3248 82.3342 57.0803 89.5564ZM129.258 101.001C133.436 104.223 135.658 109.445 135.658 116.001C135.569 119.112 135.036 122.556 134.325 123.667C133.614 124.89 132.991 126.223 132.991 126.779C132.991 127.223 136.014 129.445 139.658 131.556C143.925 134.112 148.458 138.001 152.103 142.334C157.169 148.223 157.88 149.556 157.88 153.112C157.88 157.001 157.614 157.334 151.036 162.223C138.503 171.556 128.547 177.89 127.303 177.334C124.369 175.89 123.391 153.112 125.525 136.445C126.058 132.445 125.969 132.445 122.147 131.223C109.169 127.112 106.591 108.334 117.88 100.89C121.88 98.223 125.614 98.223 129.258 101.001ZM142.947 107.223C143.214 107.556 142.858 110.112 142.236 112.89C141.525 115.667 140.991 120.001 140.991 122.334C140.991 125.445 140.636 126.556 139.925 126.223C139.303 126.001 138.947 125.001 139.214 124.223C139.48 123.334 139.658 119.001 139.658 114.556C139.658 108.001 139.836 106.556 141.08 106.556C141.791 106.556 142.68 106.779 142.947 107.223ZM344.547 135.667C344.547 139.556 345.169 139.667 335.391 132.667C327.836 127.223 327.658 127.001 327.658 123.001V118.89L336.103 125.667C343.569 131.667 344.547 132.779 344.547 135.667ZM344.547 147.223C344.547 149.223 344.103 151.223 343.658 151.556C342.591 152.334 336.014 147.89 331.036 143.001C328.191 140.223 327.658 139.001 327.658 135.445V131.112L336.103 137.334C344.014 143.223 344.547 143.779 344.547 147.223ZM336.191 151.556C339.125 153.667 342.058 155.445 342.591 155.445C343.747 155.445 344.014 161.89 342.947 163.89C342.591 164.667 339.658 163.112 334.591 159.112C326.858 153.112 326.769 153.001 326.769 148.556C326.769 144.112 326.769 144.112 328.814 145.89C329.88 146.779 333.169 149.445 336.191 151.556ZM337.258 165.556L341.169 168.445L338.769 170.89C335.836 173.667 334.503 173.779 332.903 171.445C332.28 170.556 330.68 169.001 329.258 168.112C327.125 166.779 326.769 165.779 326.769 162.001V157.445L330.147 160.001C331.925 161.445 335.214 163.89 337.258 165.556ZM329.703 173.001C330.858 174.334 331.036 174.89 330.147 175.667C327.569 177.667 325.88 176.667 325.88 173.112C325.88 169.556 326.503 169.556 329.703 173.001Z" fill="black"/>
</svg>
